<svg width="33" height="33" viewBox="0 0 33 33" fill="none" xmlns="http://www.w3.org/2000/svg">
<path d="M16.5016 1.13989C8.0184 1.13989 1.1416 8.01669 1.1416 16.4999C1.1416 24.9831 8.0184 31.8599 16.5016 31.8599C24.9848 31.8599 31.8616 24.9831 31.8616 16.4999C31.8616 8.01669 24.9848 1.13989 16.5016 1.13989ZM12.7416 22.8663H9.6312V12.8567H12.7416V22.8663ZM11.1672 11.6279C10.1848 11.6279 9.5496 10.9319 9.5496 10.0711C9.5496 9.19269 10.204 8.51749 11.2072 8.51749C12.2104 8.51749 12.8248 9.19269 12.844 10.0711C12.844 10.9319 12.2104 11.6279 11.1672 11.6279ZM24.1016 22.8663H20.9912V17.3191C20.9912 16.0279 20.54 15.1511 19.4152 15.1511C18.556 15.1511 18.0456 15.7447 17.82 16.3159C17.7368 16.5191 17.716 16.8071 17.716 17.0935V22.8647H14.604V16.0487C14.604 14.7991 14.564 13.7543 14.5224 12.8551H17.2248L17.3672 14.2455H17.4296C17.8392 13.5927 18.8424 12.6295 20.5208 12.6295C22.5672 12.6295 24.1016 14.0007 24.1016 16.9479V22.8663Z" fill="#000249"/>
</svg>
