<svg width="33" height="33" viewBox="0 0 33 33" fill="none" xmlns="http://www.w3.org/2000/svg">
<path d="M16.5005 2.5C8.76924 2.5 2.50049 8.76875 2.50049 16.5C2.50049 24.2312 8.76924 30.5 16.5005 30.5C24.2317 30.5 30.5005 24.2312 30.5005 16.5C30.5005 8.76875 24.2317 2.5 16.5005 2.5ZM23.2286 13.0531C23.238 13.2 23.238 13.3531 23.238 13.5031C23.238 18.0906 19.7442 23.375 13.3599 23.375C11.3911 23.375 9.56611 22.8031 8.02861 21.8188C8.30986 21.85 8.57861 21.8625 8.86611 21.8625C10.4911 21.8625 11.9849 21.3125 13.1755 20.3813C11.6505 20.35 10.3692 19.35 9.93174 17.975C10.4661 18.0531 10.9474 18.0531 11.4974 17.9125C10.7121 17.753 10.0063 17.3265 9.49991 16.7056C8.99348 16.0846 8.71763 15.3075 8.71924 14.5063V14.4625C9.17861 14.7219 9.71924 14.8812 10.2849 14.9031C9.80937 14.5862 9.41942 14.1569 9.14959 13.6532C8.87975 13.1495 8.73837 12.587 8.73799 12.0156C8.73799 11.3687 8.90674 10.7781 9.20986 10.2656C10.0814 11.3386 11.169 12.2161 12.4019 12.8411C13.6349 13.4662 14.9855 13.8249 16.3661 13.8938C15.8755 11.5344 17.638 9.625 19.7567 9.625C20.7567 9.625 21.6567 10.0437 22.2911 10.7188C23.0755 10.5719 23.8255 10.2781 24.4942 9.88437C24.2349 10.6875 23.6911 11.3656 22.9692 11.7937C23.6692 11.7187 24.3442 11.525 24.9692 11.2531C24.4974 11.9469 23.9067 12.5625 23.2286 13.0531V13.0531Z" fill="#000249"/>
<path d="M31.5005 16.5C31.5005 24.7843 24.7848 31.5 16.5005 31.5C8.21622 31.5 1.50049 24.7843 1.50049 16.5C1.50049 8.21573 8.21622 1.5 16.5005 1.5C24.7848 1.5 31.5005 8.21573 31.5005 16.5ZM5.13175 16.5C5.13175 22.7788 10.2217 27.8687 16.5005 27.8687C22.7793 27.8687 27.8692 22.7788 27.8692 16.5C27.8692 10.2212 22.7793 5.13126 16.5005 5.13126C10.2217 5.13126 5.13175 10.2212 5.13175 16.5Z" fill="#000249"/>
</svg>
